# xmcd
#
# Track frame offsets:
#	150
#	18386
#	35599
#	50966
#	69862
#	85929
#	105456
#	124472
#	146544
#	167763
#	189534
#	204241
#	218011
#
# Disc length: 3108 seconds
# Revision: 0
# Processed by: cddbd v1.5.2PL0 Copyright (c) Steve Scherf et al.
# Submitted via: dBpowerAMP V12.0
#
DISCID=b80c220d
DTITLE=John Lyons - Sing Me Another Song
DYEAR=2013
DGENRE=Blues
TTITLE0=Another Wave
TTITLE1=She'll Tell You No Lies
TTITLE2=Believe
TTITLE3=Waiting For You
TTITLE4=Sing Me Another Song
TTITLE5=Beautiful
TTITLE6=Helengeli
TTITLE7=Under The Stars
TTITLE8=Dear James
TTITLE9=The Blues Moved In
TTITLE10=Blink Of An Eye
TTITLE11=Bluestar Highway
TTITLE12=Way Down In The Hole
EXTD=
EXTT0=
EXTT1=
EXTT2=
EXTT3=
EXTT4=
EXTT5=
EXTT6=
EXTT7=
EXTT8=
EXTT9=
EXTT10=
EXTT11=
EXTT12=
PLAYORDER=
